<?xml version="1.0" encoding="UTF-8"?>
<svg id="Layer_1" data-name="Layer 1" xmlns="http://www.w3.org/2000/svg" viewBox="0 0 96 90">
  <defs>
    <style>
      .cls-1 {
        fill: #1a1a1a;
        stroke-width: 0px;
      }
    </style>
  </defs>
  <path class="cls-1" d="m16.35,59.04s-.82,1.18-.82,2.62v8.55s0,1.44.82,2.62l2.39,3.44s.82,1.18.82-.26v-20.12s0-1.44-.82-.26l-2.38,3.41Z"/>
  <path class="cls-1" d="m78.45,59.04s.82,1.18.82,2.62v8.55s0,1.44-.82,2.62l-2.39,3.44s-.82,1.18-.82-.26v-20.12s0-1.44.82-.26l2.38,3.41Z"/>
  <path class="cls-1" d="m42.73,73.94c-12.83-1.02-15.55-4.24-17.24-4.41-1.22-.12-2.23,1-2.23,2.23s1.27,5.63,3.45,9.1c1.64,2.61,8.9,4.94,13.74,5.84-1.14-1.48-1.82-3.33-1.82-5.34,0-3.13,1.64-5.86,4.1-7.41"/>
  <path class="cls-1" d="m71.53,71.76c0-1.23-1-2.35-2.23-2.23-1.69.17-4.41,3.39-17.24,4.41,2.46,1.55,4.1,4.29,4.1,7.42,0,2.01-.68,3.86-1.82,5.34,4.84-.9,12.1-3.23,13.74-5.84,2.18-3.47,3.45-7.87,3.45-9.1"/>
  <path class="cls-1" d="m47.44,89.12c4.31,0,7.81-3.49,7.81-7.81s-3.49-7.81-7.81-7.81-7.81,3.5-7.81,7.81,3.49,7.81,7.81,7.81"/>
  <path class="cls-1" d="m28.1,54.45h-.34v14.96c.47.23,1.05.51,1.78.81v-14.33s0-1.44-1.44-1.44Z"/>
  <path class="cls-1" d="m65.26,55.88v14.33c.72-.3,1.3-.58,1.78-.81v-14.96h-.34c-1.44,0-1.44,1.44-1.44,1.44Z"/>
  <path class="cls-1" d="m71.47,54.45v-4.76c.58-.46.9-1.17.84-1.86-.31-3.28-1.3-6.58-3.02-9.68-1.69-3.04-3.1-4.88-5.68-6.89-.6-.5-1.44-.66-2.19-.37-.88-.63-1.81-1.21-2.78-1.72-.1-.83-.65-1.51-1.39-1.8-3-1.29-6.32-2-9.8-2s-6.91.74-9.93,2.05c-.66.3-1.14.95-1.23,1.73-.98.51-1.91,1.09-2.8,1.73-.76-.29-1.6-.13-2.19.37-2.58,2-4,3.84-5.68,6.89-1.72,3.1-2.71,6.4-3.02,9.68-.06.69.26,1.4.84,1.86v4.76h-2.86v23h3.34c-1.05-2.52-1.59-4.79-1.59-5.68s.4-1.83,1.08-2.44c.62-.56,1.4-.83,2.21-.74.38.04.75.17,1.17.35v-14.48h-.97v-4.51c.37-.19.69-.49.9-.88.16-.3.25-.62.27-.88.27-2.66,1.23-5.29,2.49-7.9.69-1.43,2.5-4,4.69-5.67.19-.16.35-.36.49-.6.22-.39.3-.82.27-1.24.76-.54,1.55-1.04,2.38-1.49.34.21.73.34,1.16.34.34,0,.66-.08.9-.2,2.46-1.06,5.21-1.65,8.11-1.65s5.73.61,8.25,1.72c.23.09.49.13.76.13.43,0,.82-.13,1.16-.34.83.44,1.62.94,2.38,1.49-.03.41.05.84.27,1.24.13.24.3.44.49.6,2.19,1.67,4,4.24,4.69,5.67,1.26,2.61,2.22,5.24,2.49,7.9.01.27.1.59.27.88.22.39.53.69.9.88v4.51h-1.06v14.48c.42-.18.79-.32,1.17-.35.8-.08,1.59.18,2.21.74.68.61,1.08,1.52,1.08,2.44s-.54,3.16-1.59,5.68h3.34v-23h-2.77Z"/>
</svg>